<?xml version="1.0" standalone="no"?>
<!DOCTYPE svg PUBLIC "-//W3C//DTD SVG 20010904//EN"
 "http://www.w3.org/TR/2001/REC-SVG-20010904/DTD/svg10.dtd">
<svg version="1.0" xmlns="http://www.w3.org/2000/svg"
 width="260.000000pt" height="260.000000pt" viewBox="0 0 260.000000 260.000000"
 preserveAspectRatio="xMidYMid meet">
<metadata>
Created by potrace 1.14, written by Peter Selinger 2001-2017
</metadata>
<g transform="translate(0.000000,260.000000) scale(0.100000,-0.100000)"
fill="#000000" stroke="none">
<path d="M935 2591 c6 -11 4 -13 -8 -8 -10 3 -17 2 -17 -3 0 -6 -7 -10 -15
-10 -9 0 -27 -7 -40 -16 -14 -9 -30 -12 -37 -8 -8 5 -8 1 2 -11 9 -12 10 -16
2 -11 -8 5 -23 -4 -41 -23 -16 -17 -34 -31 -40 -31 -6 0 -11 -5 -11 -10 0 -12
-4 -17 -50 -70 -16 -19 -30 -38 -30 -42 0 -5 -7 -8 -15 -8 -8 0 -15 -7 -15
-15 0 -8 -4 -15 -9 -15 -5 0 -13 -10 -16 -21 -6 -17 -9 -19 -16 -8 -7 11 -9
11 -9 1 0 -20 -53 -92 -67 -92 -7 0 -13 -5 -13 -11 0 -7 -11 -22 -25 -35 -14
-13 -25 -29 -25 -35 0 -7 -3 -10 -6 -6 -7 7 -38 -24 -47 -47 -4 -9 -12 -14
-17 -11 -6 4 -10 3 -9 -2 1 -4 1 -15 0 -23 -1 -13 -2 -13 -11 0 -8 12 -10 11
-10 -7 0 -12 -9 -28 -20 -36 -11 -8 -17 -17 -13 -20 3 -4 -4 -7 -17 -7 -20 0
-21 -2 -9 -17 12 -15 12 -16 -3 -10 -12 4 -18 2 -18 -7 0 -8 -7 -17 -16 -20
-8 -3 -13 -10 -10 -15 3 -5 -4 -11 -15 -14 -14 -4 -18 -10 -13 -18 5 -8 2 -11
-8 -6 -9 3 -15 0 -15 -6 1 -33 -4 -47 -15 -44 -7 1 -12 -3 -11 -10 1 -6 -4
-17 -12 -23 -8 -7 -15 -25 -15 -41 0 -16 -5 -29 -11 -29 -5 0 -7 -4 -4 -10 3
-5 2 -10 -3 -10 -5 0 -8 -204 -8 -485 1 -382 4 -487 14 -494 7 -4 14 -21 15
-38 1 -17 5 -29 9 -27 3 2 11 -10 17 -26 5 -17 15 -30 20 -30 6 0 10 -4 9 -9
-2 -5 9 -20 24 -34 15 -14 24 -28 21 -31 -4 -3 1 -6 10 -6 10 0 17 -8 17 -19
0 -11 5 -23 12 -27 7 -5 8 -3 3 6 -5 9 -4 11 3 6 7 -4 12 -14 12 -22 0 -8 5
-14 10 -14 6 0 10 -7 10 -15 0 -8 7 -15 15 -15 8 0 15 -7 15 -16 0 -8 13 -28
29 -44 16 -16 26 -32 23 -35 -3 -3 2 -5 11 -5 9 0 17 -5 17 -10 0 -6 11 -21
24 -33 13 -12 25 -26 27 -32 2 -5 8 -9 13 -7 5 2 6 -4 3 -13 -5 -10 0 -15 13
-15 13 0 17 -5 14 -14 -3 -9 3 -20 15 -28 12 -7 21 -19 21 -27 0 -8 3 -12 6
-8 3 3 15 -3 27 -14 11 -10 33 -24 48 -31 15 -7 25 -16 23 -20 -5 -8 7 -10 54
-11 22 -1 22 -2 7 -13 -14 -10 98 -13 575 -14 477 0 590 2 584 12 -5 9 -2 8
10 -1 15 -12 17 -12 14 0 -2 9 4 13 15 11 9 -2 17 2 17 8 0 6 5 8 10 5 6 -3
10 -1 10 4 0 6 7 11 15 11 8 0 15 4 15 9 0 6 12 16 28 24 15 7 26 18 25 25 -2
6 4 9 13 5 9 -3 14 0 12 8 -2 8 3 13 10 11 8 -1 11 2 8 7 -4 5 -2 12 4 16 6 4
7 12 3 18 -4 8 -1 8 9 -1 13 -11 16 -10 14 5 0 10 5 17 12 15 8 -1 11 2 7 8
-3 5 -1 10 4 10 6 0 10 6 9 13 -2 6 3 11 10 9 6 -1 12 5 12 13 0 8 4 15 9 15
5 0 13 9 16 20 4 11 11 18 16 15 5 -4 9 -1 9 5 0 12 14 31 42 57 9 9 15 20 12
25 -3 4 2 8 10 8 9 0 16 7 16 15 0 8 8 15 18 16 9 0 12 3 5 6 -10 3 -10 7 0
18 9 9 14 10 19 1 5 -6 8 -2 8 12 0 12 7 25 15 28 8 4 15 12 15 19 0 7 7 16
16 19 8 3 12 10 9 16 -3 5 1 10 10 10 9 0 14 4 11 9 -3 5 1 11 9 15 8 3 15 15
15 26 0 11 7 23 15 26 9 4 15 19 15 36 0 19 4 27 12 22 6 -4 8 -3 4 4 -3 6 -3
13 2 16 6 4 10 954 3 989 0 5 -5 5 -11 2 -6 -4 -10 5 -10 21 0 15 -8 33 -17
41 -11 9 -12 11 -3 7 11 -6 10 -2 -3 13 -9 11 -14 23 -10 28 5 4 2 5 -4 1 -7
-4 -14 -2 -14 3 -1 6 -2 15 -3 20 0 5 -5 13 -10 18 -5 5 -6 2 -1 -6 5 -9 4
-12 -3 -7 -7 4 -12 14 -12 22 0 8 -4 14 -10 14 -5 0 -10 7 -10 16 0 8 -5 12
-10 9 -6 -3 -13 2 -17 12 -3 10 -12 22 -20 26 -7 4 -13 16 -13 25 0 15 -2 15
-10 2 -8 -12 -10 -10 -10 8 0 13 -4 20 -10 17 -5 -3 -10 1 -10 9 0 9 -7 16
-16 16 -8 0 -13 4 -10 8 3 5 -4 15 -15 22 -10 8 -19 20 -19 27 0 7 -7 13 -17
13 -9 0 -14 3 -10 6 3 3 -3 14 -14 25 -11 11 -17 24 -14 30 4 5 3 9 -2 8 -4
-1 -19 3 -33 9 -22 9 -23 11 -5 12 18 1 18 2 -3 11 -14 5 -20 13 -16 20 4 8 3
9 -4 5 -7 -4 -12 -2 -12 4 0 6 -5 8 -12 4 -9 -5 -8 -2 1 9 12 15 12 17 -3 11
-11 -4 -16 -1 -16 10 0 9 -7 16 -15 16 -9 0 -12 6 -8 18 3 9 3 14 -1 10 -9 -7
-46 27 -46 42 0 6 -7 10 -15 10 -8 0 -15 7 -15 15 0 8 -5 15 -11 15 -5 0 -7 5
-4 10 3 6 -1 10 -10 10 -8 0 -20 11 -25 25 -5 14 -12 25 -15 25 -4 0 -3 -5 1
-12 4 -7 3 -8 -4 -4 -7 4 -12 16 -12 27 0 10 -6 19 -13 19 -17 0 -47 36 -39
46 4 4 2 4 -4 1 -6 -3 -20 3 -32 13 -12 11 -26 20 -32 20 -5 0 -10 6 -10 13 0
9 -2 9 -9 -1 -7 -11 -9 -11 -14 2 -4 9 -14 13 -27 11 -16 -3 -20 0 -16 10 4
12 -50 14 -360 14 -287 1 -363 -2 -358 -12 5 -7 0 -5 -11 3 -15 12 -17 12 -10
1z m698 -100 c5 0 5 -7 1 -13 -5 -8 0 -7 11 2 11 9 16 10 11 3 -5 -9 1 -13 23
-13 16 0 33 -4 36 -10 3 -6 -1 -7 -12 -4 -17 5 -17 5 0 -6 9 -6 22 -8 27 -5 6
3 10 -1 10 -9 0 -9 7 -16 15 -16 8 0 15 -4 15 -10 0 -15 33 -50 42 -44 4 3 8
-2 8 -10 0 -9 8 -16 18 -16 13 0 14 -2 3 -9 -9 -6 -10 -11 -2 -15 6 -4 15 -5
20 -2 5 3 12 -6 15 -19 4 -14 11 -23 17 -20 5 4 8 2 7 -3 -2 -5 9 -24 25 -41
15 -17 27 -36 27 -42 0 -5 5 -7 11 -4 6 4 13 -2 16 -14 3 -11 9 -18 14 -15 5
3 9 -2 9 -10 0 -9 7 -16 15 -16 8 0 15 -4 15 -10 0 -5 -5 -10 -11 -10 -8 0 -7
-6 2 -17 8 -9 9 -14 3 -10 -6 3 -18 -3 -27 -14 -10 -11 -23 -17 -29 -13 -7 4
-8 3 -4 -4 4 -7 -2 -22 -14 -34 -20 -21 -21 -21 -15 -3 3 12 0 9 -7 -5 -15
-30 -29 -41 -42 -33 -5 3 -6 1 -2 -5 8 -13 -20 -45 -46 -55 -10 -4 -18 -17
-18 -29 0 -16 -3 -19 -9 -10 -7 11 -9 10 -15 -3 -3 -9 -11 -13 -17 -9 -8 4 -9
3 -5 -5 4 -6 0 -14 -9 -17 -13 -6 -14 -8 -3 -15 7 -5 -120 -9 -287 -9 -165 0
-306 -4 -313 -8 -21 -14 -24 -57 -4 -78 16 -18 34 -19 287 -19 l270 0 0 -467
1 -468 -443 0 -442 0 0 283 c1 343 1 330 -11 322 -5 -3 -10 -2 -10 3 0 5 -11
12 -25 14 -18 4 -29 -1 -41 -20 -14 -22 -16 -64 -16 -334 0 -258 -2 -310 -14
-315 -8 -3 -14 -13 -14 -22 0 -13 -2 -13 -9 -2 -7 11 -10 9 -16 -8 -3 -11 -13
-21 -20 -21 -8 0 -17 -5 -21 -12 -4 -7 -3 -8 4 -4 7 4 12 2 12 -3 0 -10 -22
-16 -44 -12 -5 1 -3 -5 4 -14 11 -14 11 -16 -1 -13 -8 2 -13 -3 -11 -10 1 -8
-1 -11 -6 -8 -5 3 -18 -2 -28 -10 -10 -9 -13 -13 -7 -9 7 3 13 1 13 -4 0 -6
-5 -11 -11 -11 -15 0 -39 -26 -39 -42 0 -11 -2 -11 -9 0 -6 11 -10 10 -16 -5
-5 -10 -7 -22 -6 -28 2 -5 0 -7 -4 -3 -3 3 -20 -7 -36 -23 -31 -30 -50 -40
-29 -14 10 12 8 14 -8 10 -14 -2 -22 3 -25 17 -4 13 -10 17 -19 12 -10 -6 -9
-3 1 10 8 9 10 16 5 15 -19 -3 -34 1 -34 11 0 6 -9 19 -20 30 -12 12 -18 26
-14 32 4 7 3 8 -4 4 -7 -4 -12 -2 -12 4 0 6 -5 8 -12 4 -9 -5 -8 -2 1 9 12 15
12 17 -3 11 -11 -4 -16 -1 -16 10 0 9 -6 19 -13 22 -7 2 -14 14 -14 26 -1 12
-7 24 -13 28 -7 4 -10 158 -10 478 -1 418 1 474 15 496 9 14 17 29 17 33 0 4
4 7 9 6 5 -2 8 0 8 5 -4 23 3 42 14 39 6 -1 11 6 10 16 0 12 4 16 13 13 8 -3
14 1 14 9 0 8 4 15 10 15 5 0 13 12 16 26 5 19 9 22 15 12 7 -10 9 -9 9 6 0
12 5 16 15 12 8 -3 14 -2 14 2 -4 24 3 42 16 42 8 0 15 7 15 15 0 8 5 15 10
15 6 0 10 7 10 15 0 8 5 15 11 15 14 0 39 25 39 39 0 6 6 11 14 11 8 0 16 10
18 23 2 14 11 23 27 25 19 3 21 6 10 13 -10 6 -10 9 -1 9 6 0 12 7 12 16 0 8
4 13 9 9 5 -3 12 4 16 15 3 11 11 19 18 17 6 -1 11 5 12 13 1 8 6 14 13 12 7
-1 12 5 12 13 0 8 7 15 16 15 14 0 15 2 3 17 -10 11 -10 14 -1 9 7 -4 12 -2
12 4 0 6 5 8 10 5 6 -3 10 -1 10 5 0 6 16 26 35 44 23 22 31 36 23 39 -7 3 -3
6 9 6 16 1 21 5 16 16 -3 10 0 15 8 13 8 -2 13 3 11 10 -1 6 4 12 10 12 7 1
24 14 38 30 13 17 32 30 43 30 10 0 15 5 12 10 -4 6 5 10 20 10 15 0 24 4 20
10 -3 6 1 7 9 4 9 -3 16 -2 16 3 0 6 623 11 663 4z m581 -603 c-4 -6 -3 -9 2
-6 8 5 52 -33 57 -49 1 -5 5 -7 9 -6 5 2 8 -4 8 -12 0 -8 5 -15 10 -15 6 0 10
-7 10 -15 0 -8 8 -15 17 -15 9 0 13 -3 10 -7 -4 -3 0 -14 9 -24 8 -9 17 -26
19 -36 1 -10 7 -17 12 -16 13 3 12 27 13 -412 2 -516 0 -575 -15 -569 -8 3
-11 -5 -10 -26 2 -30 -9 -41 -18 -17 -3 6 -6 -4 -7 -23 -1 -19 -4 -29 -7 -22
-2 6 -9 10 -13 7 -5 -3 -7 -12 -3 -21 3 -9 0 -14 -8 -12 -8 2 -15 -7 -17 -20
-3 -19 -6 -21 -18 -11 -12 9 -13 9 -9 -3 3 -8 -3 -22 -14 -32 -11 -10 -18 -23
-14 -29 3 -6 1 -7 -5 -3 -7 4 -16 -2 -21 -16 -5 -13 -19 -32 -32 -43 -13 -12
-19 -14 -14 -5 6 12 5 13 -6 2 -13 -12 -38 -18 -26 -6 11 12 -13 44 -33 44
-11 0 -19 6 -17 13 1 6 -4 11 -10 10 -7 -2 -12 0 -10 5 1 4 -15 24 -35 43 -20
20 -35 39 -32 42 3 2 -7 7 -21 11 -14 4 -25 13 -25 21 0 8 -5 15 -11 15 -5 0
-7 5 -4 10 6 9 -8 15 -29 11 -5 -1 -6 5 -3 14 5 11 0 15 -16 16 -21 0 -21 1
-2 9 15 6 16 9 4 9 -9 1 -28 11 -42 24 l-27 23 0 507 0 507 25 10 c22 9 30 20
26 43 0 4 11 7 27 7 17 0 23 3 14 8 -9 7 -7 13 9 28 13 10 19 13 15 7 -4 -7
-2 -13 3 -13 6 0 11 9 11 20 0 21 32 44 45 32 5 -4 5 -1 1 6 -4 7 -1 15 8 18
9 3 13 10 10 15 -3 5 2 9 11 9 9 0 13 5 10 10 -3 6 1 10 9 10 9 0 16 7 16 15
0 8 6 15 14 15 8 0 18 5 22 12 5 7 3 8 -6 3 -9 -6 -11 -4 -5 4 5 9 27 -8 71
-54 37 -37 62 -71 58 -77z m-449 -1217 c6 -1 3 -6 -5 -11 -12 -8 -10 -10 9
-10 20 0 22 -2 11 -15 -11 -13 -10 -14 3 -9 10 3 21 -2 29 -15 7 -12 19 -21
26 -21 7 0 10 -4 7 -10 -3 -5 1 -10 9 -10 9 0 16 -4 16 -10 0 -14 66 -80 74
-73 3 4 6 -3 6 -15 0 -12 3 -21 8 -19 9 3 58 -46 55 -55 -2 -5 6 -8 17 -8 11
0 20 -6 20 -14 0 -8 7 -16 15 -20 21 -8 19 -46 -2 -46 -14 0 -15 -2 -5 -9 11
-7 10 -9 -3 -15 -9 -3 -13 -11 -9 -17 4 -7 3 -9 -2 -6 -6 3 -16 2 -24 -4 -10
-6 -11 -9 -2 -9 6 0 12 -5 12 -11 0 -5 -4 -8 -8 -5 -9 6 -48 -35 -44 -46 1 -5
-5 -8 -13 -8 -8 0 -15 -4 -15 -10 0 -5 -7 -10 -15 -10 -8 0 -14 -6 -12 -12 1
-8 -10 -14 -25 -16 -16 -2 -28 -9 -28 -15 0 -7 -4 -6 -10 3 -8 13 -10 13 -10
-1 0 -14 -13 -16 -85 -15 -72 1 -84 -1 -80 -14 4 -13 4 -13 -7 0 -11 12 -64
19 -88 10 -18 -6 -40 -7 -40 -2 0 4 -25 7 -55 7 -45 0 -54 -3 -50 -15 4 -13 4
-13 -7 0 -11 12 -64 19 -88 10 -18 -6 -40 -7 -40 -2 0 4 -25 7 -55 7 -45 0
-54 -3 -50 -15 4 -13 4 -13 -7 0 -11 12 -64 19 -88 10 -18 -6 -40 -7 -40 -2 0
4 -25 7 -55 7 -45 0 -54 -3 -50 -15 4 -13 4 -13 -7 0 -10 12 -37 15 -117 15
-74 0 -105 4 -108 12 -3 7 -11 13 -19 13 -8 0 -14 5 -14 10 0 6 -8 10 -18 10
-18 0 -58 39 -54 53 1 4 -4 7 -12 7 -7 0 -20 8 -27 17 -12 15 -12 16 1 8 8 -5
2 5 -15 22 -41 42 -55 60 -55 73 0 5 -6 10 -13 10 -8 0 -14 7 -14 15 0 8 5 11
10 8 6 -4 8 0 5 8 -3 8 4 23 14 34 13 14 18 15 16 5 -2 -8 0 -5 6 7 5 12 18
24 28 27 11 2 22 14 25 25 3 12 10 21 15 21 5 0 6 -6 2 -12 -4 -8 -3 -10 2 -5
5 5 10 13 10 18 1 5 2 14 3 20 0 5 5 8 9 5 10 -6 62 48 62 64 0 6 5 8 11 5 6
-4 13 2 16 14 3 11 9 18 14 15 5 -3 17 8 27 25 9 17 24 32 32 34 14 2 943 1
965 -2z m-1384 -338 c13 -16 12 -17 -3 -4 -17 13 -22 21 -14 21 2 0 10 -8 17
-17z"/>
</g>
</svg>
