<?xml version="1.0" standalone="no"?>
<!DOCTYPE svg PUBLIC "-//W3C//DTD SVG 20010904//EN"
 "http://www.w3.org/TR/2001/REC-SVG-20010904/DTD/svg10.dtd">
<svg version="1.0" xmlns="http://www.w3.org/2000/svg"
 width="306.000000pt" height="306.000000pt" viewBox="0 0 306.000000 306.000000"
 preserveAspectRatio="xMidYMid meet">
<metadata>
Created by potrace 1.14, written by Peter Selinger 2001-2017
</metadata>
<g transform="translate(0.000000,306.000000) scale(0.100000,-0.100000)"
fill="#000000" stroke="none">
<path d="M1093 2931 c-11 -8 -16 -32 -14 -56 3 -24 3 -82 1 -110 -1 -11 1 -32
3 -48 2 -15 1 -30 -3 -32 -4 -3 -5 -19 -3 -37 2 -18 5 -58 6 -89 l2 -55 -268
-1 c-147 0 -270 -3 -273 -6 -11 -11 -11 -107 0 -107 7 0 7 -3 1 -8 -15 -11
-17 -32 -3 -32 9 0 9 -3 0 -12 -7 -7 -8 -17 -1 -30 6 -10 6 -18 1 -18 -6 0 -9
-15 -7 -32 l2 -33 79 -3 c44 -1 86 -2 94 -2 50 0 97 -1 110 -3 27 -5 68 -37
75 -60 4 -12 9 -29 12 -37 3 -8 5 -159 5 -335 l-1 -320 27 -39 c37 -54 76 -74
137 -71 28 2 51 4 53 5 1 2 5 3 10 4 4 1 22 8 40 15 20 8 37 10 40 5 4 -5 25
-22 47 -39 22 -16 51 -40 65 -52 14 -13 28 -23 33 -23 4 0 5 -5 2 -10 -4 -6
-3 -9 2 -8 5 2 25 -10 45 -25 l36 -29 -29 -47 c-39 -62 -46 -124 -22 -179 10
-23 21 -42 25 -42 4 0 18 -9 30 -20 13 -10 27 -19 32 -19 5 0 12 -4 16 -11 4
-6 13 -12 21 -13 8 -2 19 -5 24 -9 6 -3 26 -9 45 -13 19 -4 40 -10 45 -13 6
-4 16 -7 24 -7 8 0 16 -5 18 -12 5 -15 -36 -22 -167 -27 -58 -3 -110 -5 -115
-6 -6 -2 -12 -2 -15 -1 -20 8 -70 7 -70 -1 0 -5 -4 -7 -9 -4 -7 5 -193 10
-589 17 -79 1 -81 1 -86 -27 -13 -71 -20 -111 -21 -124 0 -8 -4 -21 -8 -27 -5
-7 -6 -13 -3 -13 2 0 1 -13 -4 -28 -7 -28 -7 -29 29 -27 20 0 44 -3 54 -7 9
-5 17 -5 17 0 0 12 32 11 49 -2 12 -9 13 -8 6 4 -6 12 -5 13 5 3 10 -9 17 -10
27 -2 8 7 13 8 13 1 0 -12 32 -10 43 3 6 7 10 6 13 -1 5 -11 67 -10 86 2 6 4
8 3 4 -4 -4 -7 3 -8 24 -2 16 5 30 5 30 1 0 -9 62 -7 77 2 6 4 14 0 17 -9 4
-10 2 -13 -7 -8 -9 6 -9 4 1 -8 8 -11 9 -18 3 -22 -6 -4 -7 -16 -2 -29 4 -12
6 -40 4 -62 -5 -53 -5 -56 0 -88 2 -15 1 -30 -3 -32 -7 -5 -4 -64 4 -72 2 -3
0 -17 -4 -33 -4 -16 -5 -31 -2 -35 4 -4 7 -12 7 -18 0 -17 242 -20 252 -4 4 7
8 102 8 212 l0 200 102 0 c85 1 104 -2 107 -15 2 -8 4 -100 3 -203 -2 -206 0
-213 53 -205 17 3 30 0 30 -6 0 -7 3 -7 8 -1 9 13 83 15 75 2 -4 -6 -1 -7 8
-1 8 5 31 8 52 7 42 -2 39 -12 41 117 0 47 -2 93 -7 103 -4 9 -4 17 1 17 10 0
9 101 -1 118 -4 6 -3 13 2 16 10 7 9 25 -1 42 -4 6 -2 11 5 12 28 2 114 12
142 17 17 2 48 7 70 11 159 25 322 103 420 202 46 46 85 91 85 99 0 3 9 18 21
34 11 16 17 29 12 29 -4 0 -3 4 3 8 18 11 55 137 59 197 2 30 6 59 9 64 4 5 0
12 -6 14 -10 4 -10 6 0 6 8 1 10 6 6 13 -4 6 -9 29 -10 50 -2 20 -8 46 -14 57
-5 11 -10 29 -10 40 0 12 -4 21 -10 21 -5 0 -10 9 -10 20 0 11 -4 20 -8 20 -5
0 -15 12 -22 28 -8 15 -28 40 -44 56 -38 36 -140 106 -155 106 -6 0 -19 4 -29
9 -9 5 -26 12 -36 16 -17 5 -14 11 29 50 27 25 45 45 42 45 -4 0 3 11 14 24
12 13 20 27 19 31 -1 3 5 16 13 28 34 53 52 232 32 317 -5 19 -10 38 -11 43
-1 4 -3 9 -4 12 -1 3 -3 8 -4 13 -3 15 -67 120 -80 131 -17 14 -26 4 -31 -37
-5 -31 -8 -43 -30 -127 -9 -33 -21 -64 -26 -69 -5 -6 -9 -16 -9 -24 0 -7 -13
-40 -29 -72 -16 -32 -27 -61 -23 -64 3 -3 1 -6 -5 -6 -5 0 -18 -18 -28 -40
-10 -22 -22 -40 -27 -40 -4 0 -8 -5 -8 -11 0 -6 -20 -39 -44 -73 -55 -76 -156
-200 -156 -190 0 4 -13 -9 -29 -29 -15 -20 -31 -34 -35 -30 -3 3 -6 -1 -6 -10
0 -10 -4 -17 -9 -17 -5 0 -24 -15 -42 -33 -19 -18 -54 -48 -79 -67 -25 -19
-52 -40 -60 -47 -57 -49 -114 -87 -135 -88 -5 0 -17 6 -25 15 -8 9 -24 23 -36
31 -19 13 -82 64 -137 112 -11 9 -23 17 -26 17 -3 0 -11 8 -18 18 -9 15 -4 32
24 92 20 41 36 80 37 88 2 7 7 17 13 20 5 4 18 26 28 50 11 23 22 42 26 42 3
0 12 15 20 33 7 17 21 40 31 50 10 10 16 22 13 27 -3 4 -2 10 3 12 4 1 23 23
42 48 19 25 38 48 43 51 5 3 9 10 10 15 1 12 48 64 133 149 88 87 121 115 136
115 6 0 8 3 5 6 -9 9 81 66 210 135 28 15 54 25 57 21 3 -3 6 0 6 7 0 7 3 10
8 7 4 -2 16 2 26 10 18 13 18 14 -10 25 -16 6 -38 12 -49 13 -12 1 -25 4 -30
7 -16 8 -74 13 -166 13 -85 1 -86 1 -85 26 1 14 -2 33 -7 43 -4 9 -4 17 1 17
7 0 9 88 2 115 -1 6 -1 12 0 15 8 18 3 210 -5 213 -5 2 -66 3 -134 3 l-124 -1
0 -217 -1 -217 -105 2 -106 2 -1 207 c0 114 -4 211 -8 215 -8 9 -232 12 -243
4z m420 -936 c-3 -8 -9 -15 -15 -15 -5 0 -7 -4 -3 -9 3 -6 0 -13 -8 -18 -17
-11 -68 -87 -89 -135 -7 -16 -16 -28 -20 -28 -4 0 -8 -7 -8 -15 0 -8 -5 -15
-12 -15 -6 0 -9 -3 -5 -6 3 -4 -1 -13 -9 -21 -8 -8 -12 -18 -9 -23 3 -4 -2
-13 -10 -20 -8 -7 -15 -18 -15 -24 0 -31 -22 -33 -73 -7 -55 27 -67 31 -133
33 -31 1 -41 5 -39 17 1 8 7 17 13 19 7 2 12 10 12 17 0 7 28 42 63 77 67 69
117 112 117 101 0 -3 8 1 18 9 21 19 105 58 125 58 7 0 17 3 21 7 4 4 19 9 34
11 15 2 28 5 31 7 9 9 20 -7 14 -20z m504 -477 c-3 -43 -8 -82 -11 -86 -3 -5
-7 -20 -10 -34 -6 -35 -60 -146 -90 -186 -36 -49 -95 -112 -105 -112 -5 0 -13
19 -19 43 -11 41 -58 125 -88 154 -15 16 -19 27 -6 19 4 -3 24 10 43 27 20 18
57 50 84 72 63 52 185 175 185 187 0 5 5 6 11 2 8 -5 10 -32 6 -86z"/>
<path d="M564 1386 c-8 -22 3 -35 26 -29 12 3 20 12 18 22 -4 21 -36 27 -44 7z"/>
<path d="M842 1278 c-18 -18 -15 -43 9 -64 19 -17 23 -17 47 -3 27 15 32 30
18 62 -9 20 -56 23 -74 5z"/>
<path d="M373 1150 c-39 -16 -50 -82 -19 -116 48 -53 141 -20 134 49 -5 59
-58 90 -115 67z"/>
<path d="M900 1051 c0 -21 21 -33 39 -22 17 11 2 41 -20 41 -12 0 -19 -7 -19
-19z"/>
<path d="M668 1027 c-16 -12 -33 -61 -18 -52 4 3 10 -2 14 -10 8 -22 53 -18
70 7 13 18 13 24 1 41 -17 25 -46 31 -67 14z"/>
</g>
</svg>
